<svg xmlns="http://www.w3.org/2000/svg" style="background: transparent; background-color: transparent; color-scheme: light dark;" xmlns:xlink="http://www.w3.org/1999/xlink" version="1.1" width="541px" height="81px" viewBox="-0.5 -0.5 541 81"><defs/><g><g data-cell-id="0"><g data-cell-id="1"><g data-cell-id="4"><g><path d="M 120 40 L 223.63 40" fill="none" stroke="#000000" stroke-miterlimit="10" pointer-events="stroke" style="stroke: light-dark(rgb(0, 0, 0), rgb(255, 255, 255));"/><path d="M 228.88 40 L 221.88 43.5 L 223.63 40 L 221.88 36.5 Z" fill="#000000" stroke="#000000" stroke-miterlimit="10" pointer-events="all" style="fill: light-dark(rgb(0, 0, 0), rgb(255, 255, 255)); stroke: light-dark(rgb(0, 0, 0), rgb(255, 255, 255));"/></g></g><g data-cell-id="2"><g><rect x="0" y="10" width="120" height="60" rx="9" ry="9" fill="#ffffff" stroke="#000000" pointer-events="all" style="fill: light-dark(#ffffff, var(--ge-dark-color, #121212)); stroke: light-dark(rgb(0, 0, 0), rgb(255, 255, 255));"/></g></g><g data-cell-id="7"><g><path d="M 330 40 L 413.63 40" fill="none" stroke="#000000" stroke-miterlimit="10" pointer-events="stroke" style="stroke: light-dark(rgb(0, 0, 0), rgb(255, 255, 255));"/><path d="M 418.88 40 L 411.88 43.5 L 413.63 40 L 411.88 36.5 Z" fill="#000000" stroke="#000000" stroke-miterlimit="10" pointer-events="all" style="fill: light-dark(rgb(0, 0, 0), rgb(255, 255, 255)); stroke: light-dark(rgb(0, 0, 0), rgb(255, 255, 255));"/></g></g><g data-cell-id="3"><g><path d="M 220 70 L 240 10 L 340 10 L 320 70 Z" fill="#ffffff" stroke="#000000" stroke-miterlimit="10" pointer-events="all" style="fill: light-dark(#ffffff, var(--ge-dark-color, #121212)); stroke: light-dark(rgb(0, 0, 0), rgb(255, 255, 255));"/></g></g><g data-cell-id="5"><g><path d="M 420 10 C 420 4.48 424.48 0 430 0 L 530 0 C 535.52 0 540 4.48 540 10 L 540 70 C 540 75.52 535.52 80 530 80 L 430 80 C 424.48 80 420 75.52 420 70 L 420 10 Z" fill="#ffffff" stroke="none" pointer-events="all" style="fill: light-dark(#ffffff, var(--ge-dark-color, #121212));"/><path d="M 422 11 L 422 69 C 422 73.97 426.03 78 431 78 L 529 78 C 533.97 78 538 73.97 538 69 L 538 11 C 538 6.03 533.97 2 529 2 L 431 2 C 426.03 2 422 6.03 422 11" fill="transparent" stroke="none" pointer-events="all" style="fill: transparent;"/><path d="M 420 10 C 420 4.48 424.48 0 430 0 L 530 0 C 535.52 0 540 4.48 540 10 L 540 70 C 540 75.52 535.52 80 530 80 L 430 80 C 424.48 80 420 75.52 420 70 L 420 10 Z" fill="none" stroke="#000000" stroke-miterlimit="10" pointer-events="all" style="stroke: light-dark(rgb(0, 0, 0), rgb(255, 255, 255));"/><path d="M 469.4 66.5 L 469.4 78.5 M 473 66.5 L 473 78.5 M 476.6 66.5 L 476.6 78.5" fill="none" stroke="#000000" stroke-miterlimit="10" pointer-events="all" style="stroke: light-dark(rgb(0, 0, 0), rgb(255, 255, 255));"/><rect x="480" y="65.5" width="14" height="14" fill="none" stroke="#000000" pointer-events="all" style="stroke: light-dark(rgb(0, 0, 0), rgb(255, 255, 255));"/><path d="M 484 72.5 L 490 72.5 M 487 69.5 L 487 75.5" fill="none" stroke="#000000" stroke-miterlimit="10" pointer-events="all" style="stroke: light-dark(rgb(0, 0, 0), rgb(255, 255, 255));"/></g></g></g></g></g></svg>